<svg width="30" height="30" viewBox="0 0 30 30" fill="none" xmlns="http://www.w3.org/2000/svg">
<circle cx="15" cy="15" r="15" fill="#3A4149"/>
<g clip-path="url(#clip0_9_244)">
<path d="M15.2717 6C9.78917 6.00083 6.875 9.51333 6.875 13.3433C6.875 15.1192 7.8675 17.335 9.45667 18.0375C9.91 18.2417 9.85 17.9925 10.24 16.5008C10.2708 16.3767 10.255 16.2692 10.155 16.1533C7.88333 13.5258 9.71167 8.12417 14.9475 8.12417C22.525 8.12417 21.1092 18.6092 16.2658 18.6092C15.0175 18.6092 14.0875 17.6292 14.3817 16.4167C14.7383 14.9725 15.4367 13.42 15.4367 12.3792C15.4367 9.75583 11.5283 10.145 11.5283 13.6208C11.5283 14.695 11.9083 15.42 11.9083 15.42C11.9083 15.42 10.6508 20.5 10.4175 21.4492C10.0225 23.0558 10.4708 25.6567 10.51 25.8808C10.5342 26.0042 10.6725 26.0433 10.75 25.9417C10.8742 25.7792 12.3942 23.6108 12.82 22.0433C12.975 21.4725 13.6108 19.1558 13.6108 19.1558C14.03 19.9125 15.2383 20.5458 16.5258 20.5458C20.3558 20.5458 23.1242 17.1792 23.1242 13.0017C23.1108 8.99667 19.6833 6 15.2717 6V6Z" fill="white"/>
</g>
<defs>
<clipPath id="clip0_9_244">
<rect width="20" height="20" fill="white" transform="translate(5 6)"/>
</clipPath>
</defs>
</svg>
