<svg width="30" height="30" viewBox="0 0 30 30" fill="none" xmlns="http://www.w3.org/2000/svg">
<circle cx="15" cy="15" r="15" fill="#3A4149"/>
<g clip-path="url(#clip0_9_239)">
<path d="M25 8.79875C24.2563 9.125 23.4637 9.34125 22.6375 9.44625C23.4875 8.93875 24.1363 8.14125 24.4412 7.18C23.6488 7.6525 22.7738 7.98625 21.8412 8.1725C21.0887 7.37125 20.0162 6.875 18.8462 6.875C16.5763 6.875 14.7487 8.7175 14.7487 10.9763C14.7487 11.3012 14.7762 11.6137 14.8438 11.9112C11.435 11.745 8.41875 10.1113 6.3925 7.6225C6.03875 8.23625 5.83125 8.93875 5.83125 9.695C5.83125 11.115 6.5625 12.3737 7.6525 13.1025C6.99375 13.09 6.3475 12.8988 5.8 12.5975C5.8 12.61 5.8 12.6262 5.8 12.6425C5.8 14.635 7.22125 16.29 9.085 16.6712C8.75125 16.7625 8.3875 16.8062 8.01 16.8062C7.7475 16.8062 7.4825 16.7913 7.23375 16.7362C7.765 18.36 9.2725 19.5538 11.065 19.5925C9.67 20.6838 7.89875 21.3412 5.98125 21.3412C5.645 21.3412 5.3225 21.3263 5 21.285C6.81625 22.4563 8.96875 23.125 11.29 23.125C18.835 23.125 22.96 16.875 22.96 11.4575C22.96 11.2762 22.9538 11.1013 22.945 10.9275C23.7588 10.35 24.4425 9.62875 25 8.79875Z" fill="white"/>
</g>
<defs>
<clipPath id="clip0_9_239">
<rect width="20" height="20" fill="white" transform="translate(5 5)"/>
</clipPath>
</defs>
</svg>
