<svg width="30" height="30" viewBox="0 0 30 30" fill="none" xmlns="http://www.w3.org/2000/svg">
<circle cx="15" cy="15" r="15" fill="#3A4149"/>
<g clip-path="url(#clip0_9_242)">
<path d="M25 14H23V12H21V14H19V16H21V18H23V16H25V14Z" fill="white"/>
<path d="M11 16H14.9C14.5 17.7 12.9 19 11 19C8.8 19 7 17.2 7 15C7 12.8 8.8 11 11 11C12.1 11 13.1 11.4 13.8 12.2L15.2 10.8C14.1 9.7 12.6 9 11 9C7.7 9 5 11.7 5 15C5 18.3 7.7 21 11 21C14.3 21 17 18.3 17 15V14H11V16Z" fill="white"/>
</g>
<defs>
<clipPath id="clip0_9_242">
<rect width="20" height="20" fill="white" transform="translate(5 5)"/>
</clipPath>
</defs>
</svg>
