<svg width="30" height="30" viewBox="0 0 30 30" fill="none" xmlns="http://www.w3.org/2000/svg">
<circle cx="15" cy="15" r="15" fill="#3A4149"/>
<path d="M23.9789 10.3135C23.7628 9.51023 23.1295 8.87703 22.3263 8.66074C20.8591 8.25928 14.99 8.25928 14.99 8.25928C14.99 8.25928 9.12112 8.25928 7.65388 8.64551C6.86618 8.86158 6.21741 9.51034 6.00135 10.3135C5.61523 11.7806 5.61523 14.8232 5.61523 14.8232C5.61523 14.8232 5.61523 17.8812 6.00135 19.333C6.21764 20.1362 6.85073 20.7694 7.65399 20.9857C9.13657 21.3872 14.9902 21.3872 14.9902 21.3872C14.9902 21.3872 20.8591 21.3872 22.3263 21.001C23.1296 20.7848 23.7628 20.1516 23.9791 19.3485C24.3651 17.8812 24.3651 14.8387 24.3651 14.8387C24.3651 14.8387 24.3806 11.7806 23.9789 10.3135ZM13.1214 17.6341V12.0124L18.0019 14.8232L13.1214 17.6341Z" fill="white"/>
</svg>
