<svg width="156" height="50" viewBox="0 0 156 50" fill="none" xmlns="http://www.w3.org/2000/svg">
<path d="M0 25.8499L5.91221 33.5873V11.8406L9.03565 15.1231L12.1033 11.8992V41.8523L18.1271 50V0H14.1112L9.03565 5.33411L3.96007 0H0V25.8499Z" fill="url(#paint0_linear_98_93)"/>
<path fill-rule="evenodd" clip-rule="evenodd" d="M20.8729 0V50L27.064 41.8523V21.3951L31.0799 24.6776V35.8148L39 25.2052V23.0363L35.8766 20.34H39V0H20.8729ZM32.9762 6.38921H27.064V13.8921H32.9762V6.38921Z" fill="url(#paint1_linear_98_93)"/>
<path d="M62.96 29L62.942 21.44L59.234 27.668H57.92L54.23 21.602V29H51.494V16.4H53.906L58.622 24.23L63.266 16.4H65.66L65.696 29H62.96ZM73.0954 29.144C72.0754 29.144 71.1574 28.934 70.3414 28.514C69.5374 28.082 68.9074 27.488 68.4514 26.732C67.9954 25.976 67.7674 25.118 67.7674 24.158C67.7674 23.198 67.9954 22.34 68.4514 21.584C68.9074 20.828 69.5374 20.24 70.3414 19.82C71.1574 19.388 72.0754 19.172 73.0954 19.172C74.1154 19.172 75.0274 19.388 75.8314 19.82C76.6354 20.24 77.2654 20.828 77.7214 21.584C78.1774 22.34 78.4054 23.198 78.4054 24.158C78.4054 25.118 78.1774 25.976 77.7214 26.732C77.2654 27.488 76.6354 28.082 75.8314 28.514C75.0274 28.934 74.1154 29.144 73.0954 29.144ZM73.0954 26.84C73.8154 26.84 74.4034 26.6 74.8594 26.12C75.3274 25.628 75.5614 24.974 75.5614 24.158C75.5614 23.342 75.3274 22.694 74.8594 22.214C74.4034 21.722 73.8154 21.476 73.0954 21.476C72.3754 21.476 71.7814 21.722 71.3134 22.214C70.8454 22.694 70.6114 23.342 70.6114 24.158C70.6114 24.974 70.8454 25.628 71.3134 26.12C71.7814 26.6 72.3754 26.84 73.0954 26.84ZM86.1683 19.172C87.3683 19.172 88.3343 19.532 89.0663 20.252C89.8103 20.972 90.1823 22.04 90.1823 23.456V29H87.3743V23.888C87.3743 23.12 87.2063 22.55 86.8703 22.178C86.5343 21.794 86.0483 21.602 85.4123 21.602C84.7043 21.602 84.1403 21.824 83.7203 22.268C83.3003 22.7 83.0903 23.348 83.0903 24.212V29H80.2823V19.316H82.9643V20.45C83.3363 20.042 83.7983 19.73 84.3503 19.514C84.9023 19.286 85.5083 19.172 86.1683 19.172ZM102.319 24.194C102.319 24.23 102.301 24.482 102.265 24.95H94.9391C95.0711 25.55 95.3831 26.024 95.8751 26.372C96.3671 26.72 96.9791 26.894 97.7111 26.894C98.2151 26.894 98.6591 26.822 99.0431 26.678C99.4391 26.522 99.8051 26.282 100.141 25.958L101.635 27.578C100.723 28.622 99.3911 29.144 97.6391 29.144C96.5471 29.144 95.5811 28.934 94.7411 28.514C93.9011 28.082 93.2531 27.488 92.7971 26.732C92.3411 25.976 92.1131 25.118 92.1131 24.158C92.1131 23.21 92.3351 22.358 92.7791 21.602C93.2351 20.834 93.8531 20.24 94.6331 19.82C95.4251 19.388 96.3071 19.172 97.2791 19.172C98.2271 19.172 99.0851 19.376 99.8531 19.784C100.621 20.192 101.221 20.78 101.653 21.548C102.097 22.304 102.319 23.186 102.319 24.194ZM97.2971 21.296C96.6611 21.296 96.1271 21.476 95.6951 21.836C95.2631 22.196 94.9991 22.688 94.9031 23.312H99.6731C99.5771 22.7 99.3131 22.214 98.8811 21.854C98.4491 21.482 97.9211 21.296 97.2971 21.296ZM113.625 19.316L109.251 29.594C108.807 30.71 108.255 31.496 107.595 31.952C106.947 32.408 106.161 32.636 105.237 32.636C104.733 32.636 104.235 32.558 103.743 32.402C103.251 32.246 102.849 32.03 102.537 31.754L103.563 29.756C103.779 29.948 104.025 30.098 104.301 30.206C104.589 30.314 104.871 30.368 105.147 30.368C105.531 30.368 105.843 30.272 106.083 30.08C106.323 29.9 106.539 29.594 106.731 29.162L106.767 29.072L102.573 19.316H105.471L108.189 25.886L110.925 19.316H113.625ZM122.997 29L120.567 25.49H120.423H117.885V29H114.969V16.4H120.423C121.539 16.4 122.505 16.586 123.321 16.958C124.149 17.33 124.785 17.858 125.229 18.542C125.673 19.226 125.895 20.036 125.895 20.972C125.895 21.908 125.667 22.718 125.211 23.402C124.767 24.074 124.131 24.59 123.303 24.95L126.129 29H122.997ZM122.943 20.972C122.943 20.264 122.715 19.724 122.259 19.352C121.803 18.968 121.137 18.776 120.261 18.776H117.885V23.168H120.261C121.137 23.168 121.803 22.976 122.259 22.592C122.715 22.208 122.943 21.668 122.943 20.972ZM131.825 19.172C133.325 19.172 134.477 19.532 135.281 20.252C136.085 20.96 136.487 22.034 136.487 23.474V29H133.859V27.794C133.331 28.694 132.347 29.144 130.907 29.144C130.163 29.144 129.515 29.018 128.963 28.766C128.423 28.514 128.009 28.166 127.721 27.722C127.433 27.278 127.289 26.774 127.289 26.21C127.289 25.31 127.625 24.602 128.297 24.086C128.981 23.57 130.031 23.312 131.447 23.312H133.679C133.679 22.7 133.493 22.232 133.121 21.908C132.749 21.572 132.191 21.404 131.447 21.404C130.931 21.404 130.421 21.488 129.917 21.656C129.425 21.812 129.005 22.028 128.657 22.304L127.649 20.342C128.177 19.97 128.807 19.682 129.539 19.478C130.283 19.274 131.045 19.172 131.825 19.172ZM131.609 27.254C132.089 27.254 132.515 27.146 132.887 26.93C133.259 26.702 133.523 26.372 133.679 25.94V24.95H131.753C130.601 24.95 130.025 25.328 130.025 26.084C130.025 26.444 130.163 26.732 130.439 26.948C130.727 27.152 131.117 27.254 131.609 27.254ZM139.028 19.316H141.836V29H139.028V19.316ZM140.432 17.966C139.916 17.966 139.496 17.816 139.172 17.516C138.848 17.216 138.686 16.844 138.686 16.4C138.686 15.956 138.848 15.584 139.172 15.284C139.496 14.984 139.916 14.834 140.432 14.834C140.948 14.834 141.368 14.978 141.692 15.266C142.016 15.554 142.178 15.914 142.178 16.346C142.178 16.814 142.016 17.204 141.692 17.516C141.368 17.816 140.948 17.966 140.432 17.966ZM150.328 19.172C151.528 19.172 152.494 19.532 153.226 20.252C153.97 20.972 154.342 22.04 154.342 23.456V29H151.534V23.888C151.534 23.12 151.366 22.55 151.03 22.178C150.694 21.794 150.208 21.602 149.572 21.602C148.864 21.602 148.3 21.824 147.88 22.268C147.46 22.7 147.25 23.348 147.25 24.212V29H144.442V19.316H147.124V20.45C147.496 20.042 147.958 19.73 148.51 19.514C149.062 19.286 149.668 19.172 150.328 19.172Z" fill="#3A4149"/>
<defs>
<linearGradient id="paint0_linear_98_93" x1="19.382" y1="0" x2="19.382" y2="50" gradientUnits="userSpaceOnUse">
<stop stop-color="#25459A"/>
<stop offset="1" stop-color="#5E86ED"/>
</linearGradient>
<linearGradient id="paint1_linear_98_93" x1="19.618" y1="0" x2="19.618" y2="50" gradientUnits="userSpaceOnUse">
<stop stop-color="#5E86ED"/>
<stop offset="1" stop-color="#25459A"/>
</linearGradient>
</defs>
</svg>
